<?xml version="1.0" ?>
<!DOCTYPE svg  PUBLIC '-//W3C//DTD SVG 1.1//EN'  'http://www.w3.org/Graphics/SVG/1.1/DTD/svg11.dtd'>
<!-- Uploaded to: SVG Repo, www.svgrepo.com, Generator: SVG Repo Mixer Tools -->
<svg fill="#000000" width="800px" height="800px" viewBox="0 0 512 512" enable-background="new 0 0 512 512" id="Knowledge" version="1.1" xml:space="preserve" xmlns="http://www.w3.org/2000/svg" xmlns:xlink="http://www.w3.org/1999/xlink">
<g>
<path d="M119.735,73.5h13.316l0.066,51.131c0.004,3.414,2.773,6.869,6.188,6.869c0.002,0,0.004,0,0.008,0   c3.418,0,6.184-3.469,6.18-6.885L145.427,73.5h13.266c2.166,0,4.084-0.495,4.889-2.502c0.807-2.008,0.314-3.869-1.252-5.363   l-19.479-18.408c-2.039-1.945-5.232-1.849-7.273,0.101l-19.48,18.66c-1.564,1.494-2.055,2.979-1.25,4.987   C115.653,72.982,117.571,73.5,119.735,73.5z"/>
<path d="M371,143.626c-3.42,0-5.5,2.768-5.5,6.188v18.721c2-0.563,7-1.057,11-1.486v-17.234   C376.5,146.394,374.42,143.626,371,143.626z"/>
<path d="M352.427,73.5h13.318l0.064,51.131c0.004,3.414,2.773,6.869,6.188,6.869c0.002,0,0.006,0,0.008,0   c3.418,0,6.184-3.469,6.18-6.885L378.12,73.5h13.266c2.164,0,3.819-0.493,4.624-2.5c0.807-2.008,1.49-3.715-1.51-5.209v0.123   l-19.217-18.547c-2.041-1.947-5.105-1.918-7.145,0.031l-19.412,18.623c-1.566,1.494-2.026,2.959-1.22,4.971   C348.31,73,350.263,73.5,352.427,73.5z"/>
<path d="M286.673,100.679l-8.984-27.65c-0.467-1.439,0.045-3.014,1.27-3.902l23.52-17.701c2.736-1.988,1.332-6.925-2.051-6.925   h-29.074c-1.512,0-2.854-0.364-3.32-1.801l-8.984-27.345c-1.045-3.217-5.596-3.064-6.641,0.152l-8.984,27.117   c-0.467,1.438-1.809,1.877-3.32,1.877h-29.074c-3.381,0-4.787,4.937-2.051,6.925l23.521,17.397   c1.225,0.887,1.736,2.615,1.268,4.055l-8.984,27.726c-1.045,3.217,2.637,5.93,5.373,3.941l23.521-17.07   c1.223-0.889,2.879-0.879,4.104,0.011l23.521,17.092C284.038,106.566,287.718,103.896,286.673,100.679z"/>
<path d="M457.403,446.862c0.896,0.096,1.261,0.145,2.157,0.145c12.959,0,22.939-10.563,22.939-23.523V196.452   c-2-0.242-7-0.461-9-0.631v-14.666c0-7.109-5.186-13.049-12.23-13.768c-16.896-1.732-48.896-3.893-83.658-0.34   c-4.096,0.43-8.193,0.924-12.334,1.486c-38.609,5.467-77.959,18.674-102.752,47.699c-0.006,0.008-0.025,0.016-0.025,0.023v271.627   c2-0.902,7.109-2.615,10.195-5.07c18.242-14.486,60.223-38.787,137.527-38.787C425.291,444.026,441.124,444.995,457.403,446.862z    M300.905,244.122c37.924-20.994,77.219-28.475,123.674-23.545c3.398,0.361,5.859,3.406,5.5,6.807   c-0.359,3.396-3.4,5.848-6.807,5.5c-43.801-4.656-80.781,2.359-116.373,22.064c-0.951,0.525-1.979,0.775-2.992,0.775   c-2.178,0-4.289-1.15-5.418-3.191C296.833,249.542,297.915,245.776,300.905,244.122z M300.905,288.308   c37.924-20.994,77.219-28.48,123.674-23.545c3.398,0.361,5.859,3.408,5.5,6.807c-0.359,3.396-3.4,5.848-6.807,5.5   c-43.801-4.656-80.781,2.361-116.373,22.064c-0.951,0.525-1.979,0.775-2.992,0.775c-2.178,0-4.289-1.15-5.418-3.191   C296.833,293.728,297.915,289.962,300.905,288.308z M300.905,332.493c37.924-20.992,77.219-28.479,123.674-23.545   c3.398,0.361,5.859,3.408,5.5,6.807c-0.359,3.396-3.4,5.848-6.807,5.5c-43.801-4.656-80.781,2.361-116.373,22.064   c-0.951,0.527-1.979,0.775-2.992,0.775c-2.178,0-4.289-1.15-5.418-3.191C296.833,337.913,297.915,334.147,300.905,332.493z    M306.899,387.505c-0.951,0.527-1.979,0.777-2.992,0.777c-2.178,0-4.289-1.152-5.418-3.193c-1.656-2.99-0.574-6.754,2.416-8.408   c37.924-20.994,77.219-28.479,123.674-23.547c3.398,0.361,5.859,3.408,5.5,6.807s-3.4,5.846-6.807,5.5   C379.472,360.784,342.491,367.802,306.899,387.505z"/>
<path d="M145.5,168.351v-18.537c0-3.42-3.58-6.188-7-6.188s-7,2.768-7,6.188V165.5c0,0,1.522,0,1.517,0   c-34.469-2-66.299-0.586-83.061,1.146c-7.043,0.719-12.456,7.4-12.456,14.509v14.666c-4,0.17-7,0.389-9,0.631v227.031   c0,12.961,10.258,23.523,23.219,23.523c0.922,0,1.677-0.049,2.574-0.145c16.279-1.867,32.102-2.836,47.194-2.836   c77.279,0,118.843,24.301,137.085,38.787c3.08,2.447,7.928,4.158,9.928,5.066V215.874C223.5,186.653,183.5,173.753,145.5,168.351z    M211.692,385.089c-1.131,2.041-3.242,3.193-5.42,3.193c-1.014,0-2.041-0.25-2.99-0.777   c-35.592-19.703-72.57-26.713-116.373-22.064c-3.406,0.344-6.445-2.102-6.807-5.5s2.102-6.445,5.5-6.807   c46.459-4.926,85.748,2.551,123.674,23.547C212.265,378.335,213.347,382.099,211.692,385.089z M211.692,340.903   c-1.131,2.041-3.242,3.191-5.42,3.191c-1.014,0-2.041-0.248-2.99-0.775c-35.592-19.703-72.57-26.711-116.373-22.064   c-3.406,0.342-6.445-2.102-6.807-5.5s2.102-6.445,5.5-6.807c46.459-4.928,85.748,2.549,123.674,23.545   C212.265,334.147,213.347,337.913,211.692,340.903z M211.692,296.718c-1.131,2.041-3.242,3.191-5.42,3.191   c-1.014,0-2.041-0.25-2.99-0.775c-35.592-19.703-72.57-26.715-116.373-22.064c-3.406,0.342-6.445-2.102-6.807-5.5   s2.102-6.445,5.5-6.807c46.459-4.924,85.748,2.551,123.674,23.545C212.265,289.962,213.347,293.728,211.692,296.718z    M211.692,252.532c-1.131,2.041-3.242,3.191-5.42,3.191c-1.014,0-2.041-0.25-2.99-0.775   c-35.592-19.703-72.57-26.713-116.373-22.064c-3.406,0.344-6.445-2.102-6.807-5.5c-0.361-3.4,2.102-6.445,5.5-6.807   c46.459-4.926,85.748,2.551,123.674,23.545C212.265,245.776,213.347,249.542,211.692,252.532z"/>
<path d="M483.367,466.305C379.598,455.344,317.126,478.5,284.522,498.5h197.189c9.359,0,16.788-6.958,16.788-16.315v-29.34   C498.5,461.034,491.512,467.156,483.367,466.305z"/>
<path d="M27.877,466.305c-8.145,0.852-15.377-5.271-15.377-13.46v29.34c0,9.357,7.872,16.315,17.233,16.315h197.189   C194.343,478.5,131.647,455.344,27.877,466.305z"/>
</g>
</svg>