<?xml version="1.0" encoding="iso-8859-1"?>
<!-- Uploaded to: SVG Repo, www.svgrepo.com, Generator: SVG Repo Mixer Tools -->
<svg fill="#000000" height="800px" width="800px" version="1.1" id="Layer_1" xmlns="http://www.w3.org/2000/svg" xmlns:xlink="http://www.w3.org/1999/xlink" 
	 viewBox="0 0 500 500" xml:space="preserve">
<g>
	<g>
		<path d="M263.714,0h-23.468c-32.348,0-58.664,26.32-58.664,58.668c0,2.208,1.788,4,4,4c2.212,0,4-1.792,4-4
			C189.582,30.732,212.314,8,240.25,8h23.468c27.936,0,50.668,22.732,50.668,50.668c0,2.208,1.788,4,4,4c2.208,0,4-1.792,3.996-4
			C322.382,26.32,296.066,0,263.714,0z"/>
	</g>
</g>
<g>
	<g>
		<path d="M263.778,15.616H240.19c-23.74,0-43.052,19.264-43.052,42.936c0,2.208,1.788,4,4,4c2.212,0,4-1.792,4-4
			c0-19.264,15.724-34.936,35.052-34.936h23.588c19.324,0,35.048,15.7,35.048,34.996c0,2.208,1.788,4,4,4c2.212,0,4-1.788,4-4
			C306.826,34.904,287.514,15.616,263.778,15.616z"/>
	</g>
</g>
<g>
	<g>
		<path d="M318.45,54.668H185.526c-59.292,0-109.38,48.324-109.38,105.524v304.732C76.146,485,96.786,500,115.238,500h273.496
			c19.364,0,35.12-15.736,35.124-35.072V160.192C423.858,102.004,376.57,54.668,318.45,54.668z M415.85,464.928
			c0,14.932-12.168,27.076-27.12,27.076H115.234c-14.376,0-31.092-11.828-31.092-27.076V160.192
			c0-52.864,46.428-97.524,101.38-97.524h132.92c53.712,0,97.408,43.748,97.408,97.524V464.928z"/>
	</g>
</g>
<g>
	<g>
		<path d="M307.57,82H196.402c-49.088,0-89.02,39.884-89.02,88.908V296.76h-27.24c-2.212,0-4,1.792-4,4s1.788,4,4,4h31.24
			c2.208,0,4-1.788,4-4V170.908c0-44.612,36.344-80.908,81.02-80.908H307.57c43.2,0,77.044,35.54,77.048,80.908v59.572
			c0,2.208,1.788,4,4,4c2.212,0,4-1.792,4-4v-59.572C392.618,121.052,355.262,82,307.57,82z"/>
	</g>
</g>
<g>
	<g>
		<path d="M419.854,296.76h-27.24v-23.332c0-2.208-1.788-4-4-4c-2.212,0-4,1.792-4,4v27.332c0,2.208,1.788,4,4,4h31.24
			c2.212,0,4-1.792,4-4S422.066,296.76,419.854,296.76z"/>
	</g>
</g>
<g>
	<g>
		<path d="M306.734,261.616H197.238c-33.308,0-62.524,27.416-62.524,58.668v136.668c0,2.208,1.788,4,4,4h222.568
			c2.212,0,4-1.788,4.004-4V320.284C365.286,287.936,339.018,261.616,306.734,261.616z M357.286,452.952H142.714V320.284
			c0-26.992,25.476-50.668,54.524-50.668h109.496c27.876,0,50.552,22.732,50.552,50.668V452.952z"/>
	</g>
</g>
<g>
	<g>
		<path d="M244.046,374.856h-74.24c-10.696,0-27.092-11.328-27.092-25.288c0-2.208-1.788-4-4-4c-2.212,0-4,1.792-4,4
			c0,17.928,19.296,33.288,35.092,33.288h74.24c2.208,0,4-1.792,4-4S246.258,374.856,244.046,374.856z"/>
	</g>
</g>
<g>
	<g>
		<path d="M361.282,345.568c-2.212,0-4,1.792-4,4c0,13.944-12.168,25.288-27.124,25.288h-58.684c-2.212,0-4,1.792-4,4s1.788,4,4,4
			h58.684c19.368,0,35.124-14.932,35.124-33.288C365.282,347.36,363.494,345.568,361.282,345.568z"/>
	</g>
</g>
<g>
	<g>
		<path d="M201.094,347.524h-7.812c-6.512,0-11.808,5.296-11.808,11.808v39.048c0,6.512,5.296,11.812,11.808,11.812h7.812
			c6.512,0,11.812-5.3,11.808-11.812v-39.048C212.902,352.82,207.606,347.524,201.094,347.524z M204.902,398.38
			c0,2.104-1.708,3.812-3.808,3.812h-7.812c-2.1,0-3.808-1.712-3.808-3.812v-39.048c0-2.1,1.708-3.808,3.808-3.808h7.812
			c2.1,0,3.808,1.708,3.808,3.808V398.38z"/>
	</g>
</g>
<g>
	<g>
		<path d="M302.714,347.524h-7.808c-6.512,0-11.812,5.296-11.812,11.808v39.048c0,6.512,5.3,11.812,11.812,11.812h7.808
			c6.512,0,11.808-5.3,11.808-11.812v-39.048C314.522,352.82,309.226,347.524,302.714,347.524z M306.522,398.38
			c0,2.104-1.708,3.812-3.808,3.812h-7.808c-2.1,0-3.812-1.712-3.812-3.812v-39.048c0-2.1,1.712-3.808,3.812-3.808h7.808
			c2.1,0,3.808,1.708,3.808,3.808V398.38z"/>
	</g>
</g>
</svg>