<!DOCTYPE svg PUBLIC "-//W3C//DTD SVG 1.1//EN" "http://www.w3.org/Graphics/SVG/1.1/DTD/svg11.dtd">
<!-- Uploaded to: SVG Repo, www.svgrepo.com, Transformed by: SVG Repo Mixer Tools -->
<svg width="100px" height="100px" viewBox="-51.2 -51.2 614.40 614.40" xmlns="http://www.w3.org/2000/svg" fill="#000000">
<g id="SVGRepo_bgCarrier" stroke-width="0">
<path transform="translate(-51.2, -51.2), scale(38.4)" fill="#c84141" d="M9.166.33a2.25 2.25 0 00-2.332 0l-5.25 3.182A2.25 2.25 0 00.5 5.436v5.128a2.25 2.25 0 001.084 1.924l5.25 3.182a2.25 2.25 0 002.332 0l5.25-3.182a2.25 2.25 0 001.084-1.924V5.436a2.25 2.25 0 00-1.084-1.924L9.166.33z" strokewidth="0"/>
</g>
<g id="SVGRepo_tracerCarrier" stroke-linecap="round" stroke-linejoin="round" stroke="#CCCCCC" stroke-width="10.24">
<path fill="#000000" d="M233.156 36.156c-6.48-.048-13.395 1.184-20.47 3.625-16.957 5.854-33.577 18.887-43.467 36.157 77.39 68.916 107.53 126.832 108.06 219.25 43.458-77.778 36.565-167.55-17.217-248.218-6.928-7.206-16.306-10.736-26.907-10.814zm93.78 35.375c-6.478-.047-13.393 1.185-20.467 3.626-2.493.86-4.982 1.902-7.44 3.063 14.802 31.958 23.134 65.038 24.75 97.936 32.99 45.06 46.945 91.825 47.314 154.375 43.432-77.787 36.5-167.58-17.313-248.25-6.92-7.15-16.28-10.67-26.842-10.75zm70.783 49.564c-.51-.004-1.018.02-1.533.03 19.362 45.11 25.912 92.202 19.032 137.75 18.285 35.42 26.38 73.767 26.655 121.22 43.436-77.79 36.502-167.58-17.313-248.25-6.92-7.15-16.282-10.672-26.843-10.75zM86.905 235.064c-9.708.257-19.153 2.586-27.125 6.467-14.347 6.987-22.985 17.96-22.81 30.595 8.884 44.736 21.04 77.706 40.718 100.688 16.145 18.856 37.66 31.635 68.406 39.156-39.886-58.353-46.966-90.635-41.688-175.033-4.366-1.084-8.854-1.69-13.312-1.843-1.394-.05-2.8-.068-4.188-.03z"/>
</g>
<g id="SVGRepo_iconCarrier">
<path fill="#000000" d="M233.156 36.156c-6.48-.048-13.395 1.184-20.47 3.625-16.957 5.854-33.577 18.887-43.467 36.157 77.39 68.916 107.53 126.832 108.06 219.25 43.458-77.778 36.565-167.55-17.217-248.218-6.928-7.206-16.306-10.736-26.907-10.814zm93.78 35.375c-6.478-.047-13.393 1.185-20.467 3.626-2.493.86-4.982 1.902-7.44 3.063 14.802 31.958 23.134 65.038 24.75 97.936 32.99 45.06 46.945 91.825 47.314 154.375 43.432-77.787 36.5-167.58-17.313-248.25-6.92-7.15-16.28-10.67-26.842-10.75zm70.783 49.564c-.51-.004-1.018.02-1.533.03 19.362 45.11 25.912 92.202 19.032 137.75 18.285 35.42 26.38 73.767 26.655 121.22 43.436-77.79 36.502-167.58-17.313-248.25-6.92-7.15-16.282-10.672-26.843-10.75zM86.905 235.064c-9.708.257-19.153 2.586-27.125 6.467-14.347 6.987-22.985 17.96-22.81 30.595 8.884 44.736 21.04 77.706 40.718 100.688 16.145 18.856 37.66 31.635 68.406 39.156-39.886-58.353-46.966-90.635-41.688-175.033-4.366-1.084-8.854-1.69-13.312-1.843-1.394-.05-2.8-.068-4.188-.03z"/>
</g>
</svg>